<svg width="14" height="15" viewBox="0 0 14 15" fill="none" xmlns="http://www.w3.org/2000/svg">
<path d="M6.66667 7.5C5.75 7.5 4.96528 7.17361 4.3125 6.52083C3.65972 5.86806 3.33333 5.08333 3.33333 4.16667V1.25C3.33333 0.902778 3.45486 0.607639 3.69792 0.364583C3.94097 0.121528 4.23611 0 4.58333 0C4.79167 0 4.98958 0.0486111 5.17708 0.145833C5.36458 0.243056 5.51389 0.381944 5.625 0.5625C5.73611 0.381944 5.88542 0.243056 6.07292 0.145833C6.26042 0.0486111 6.45833 0 6.66667 0C6.875 0 7.07292 0.0486111 7.26042 0.145833C7.44792 0.243056 7.59722 0.381944 7.70833 0.5625C7.81944 0.381944 7.96875 0.243056 8.15625 0.145833C8.34375 0.0486111 8.54167 0 8.75 0C9.09722 0 9.39236 0.121528 9.63542 0.364583C9.87847 0.607639 10 0.902778 10 1.25V4.16667C10 5.08333 9.67361 5.86806 9.02083 6.52083C8.36806 7.17361 7.58333 7.5 6.66667 7.5ZM6.66667 5.83333C7.125 5.83333 7.51736 5.67014 7.84375 5.34375C8.17014 5.01736 8.33333 4.625 8.33333 4.16667V2.08333H5V4.16667C5 4.625 5.16319 5.01736 5.48958 5.34375C5.81597 5.67014 6.20833 5.83333 6.66667 5.83333ZM0 14.1667V11.8333C0 11.3611 0.121528 10.9271 0.364583 10.5312C0.607639 10.1354 0.930556 9.83333 1.33333 9.625C2.19444 9.19444 3.06944 8.87153 3.95833 8.65625C4.84722 8.44097 5.75 8.33333 6.66667 8.33333C7.58333 8.33333 8.48611 8.44097 9.375 8.65625C10.2639 8.87153 11.1389 9.19444 12 9.625C12.4028 9.83333 12.7257 10.1354 12.9688 10.5312C13.2118 10.9271 13.3333 11.3611 13.3333 11.8333V14.1667H0ZM1.66667 12.5H11.6667V11.8333C11.6667 11.6806 11.6285 11.5417 11.5521 11.4167C11.4757 11.2917 11.375 11.1944 11.25 11.125C10.5 10.75 9.74306 10.4688 8.97917 10.2812C8.21528 10.0938 7.44444 10 6.66667 10C5.88889 10 5.11806 10.0938 4.35417 10.2812C3.59028 10.4688 2.83333 10.75 2.08333 11.125C1.95833 11.1944 1.85764 11.2917 1.78125 11.4167C1.70486 11.5417 1.66667 11.6806 1.66667 11.8333V12.5Z" fill="#64748B"/>
</svg>
