<svg width="32" height="32" viewBox="0 0 32 32" fill="none" xmlns="http://www.w3.org/2000/svg">
<path d="M14.8333 19.8334L20.7083 13.9584L19.5417 12.7917L14.8333 17.5L12.4583 15.125L11.2917 16.2917L14.8333 19.8334ZM16 24.3334C14.8472 24.3334 13.7639 24.1146 12.75 23.6771C11.7361 23.2396 10.8542 22.6459 10.1042 21.8959C9.35416 21.1459 8.76041 20.2639 8.32291 19.25C7.88541 18.2361 7.66666 17.1528 7.66666 16C7.66666 14.8472 7.88541 13.7639 8.32291 12.75C8.76041 11.7361 9.35416 10.8542 10.1042 10.1042C10.8542 9.35419 11.7361 8.76044 12.75 8.32294C13.7639 7.88544 14.8472 7.66669 16 7.66669C17.1528 7.66669 18.2361 7.88544 19.25 8.32294C20.2639 8.76044 21.1458 9.35419 21.8958 10.1042C22.6458 10.8542 23.2396 11.7361 23.6771 12.75C24.1146 13.7639 24.3333 14.8472 24.3333 16C24.3333 17.1528 24.1146 18.2361 23.6771 19.25C23.2396 20.2639 22.6458 21.1459 21.8958 21.8959C21.1458 22.6459 20.2639 23.2396 19.25 23.6771C18.2361 24.1146 17.1528 24.3334 16 24.3334ZM16 22.6667C17.8611 22.6667 19.4375 22.0209 20.7292 20.7292C22.0208 19.4375 22.6667 17.8611 22.6667 16C22.6667 14.1389 22.0208 12.5625 20.7292 11.2709C19.4375 9.97919 17.8611 9.33335 16 9.33335C14.1389 9.33335 12.5625 9.97919 11.2708 11.2709C9.97916 12.5625 9.33332 14.1389 9.33332 16C9.33332 17.8611 9.97916 19.4375 11.2708 20.7292C12.5625 22.0209 14.1389 22.6667 16 22.6667Z" fill="#0063ED"/>
</svg>
