<svg width="32" height="32" viewBox="0 0 32 32" fill="none" xmlns="http://www.w3.org/2000/svg">
<path d="M16 24.3334C14.8472 24.3334 13.7639 24.1146 12.75 23.6771C11.7361 23.2396 10.8542 22.6459 10.1042 21.8959C9.35419 21.1459 8.76044 20.2639 8.32294 19.25C7.88544 18.2361 7.66669 17.1528 7.66669 16C7.66669 14.8472 7.88544 13.7639 8.32294 12.75C8.76044 11.7361 9.35419 10.8542 10.1042 10.1042C10.8542 9.35419 11.7361 8.76044 12.75 8.32294C13.7639 7.88544 14.8472 7.66669 16 7.66669C17.1528 7.66669 18.2361 7.88544 19.25 8.32294C20.2639 8.76044 21.1459 9.35419 21.8959 10.1042C22.6459 10.8542 23.2396 11.7361 23.6771 12.75C24.1146 13.7639 24.3334 14.8472 24.3334 16C24.3334 17.1528 24.1146 18.2361 23.6771 19.25C23.2396 20.2639 22.6459 21.1459 21.8959 21.8959C21.1459 22.6459 20.2639 23.2396 19.25 23.6771C18.2361 24.1146 17.1528 24.3334 16 24.3334ZM16 22.6667C17.8611 22.6667 19.4375 22.0209 20.7292 20.7292C22.0209 19.4375 22.6667 17.8611 22.6667 16C22.6667 14.1389 22.0209 12.5625 20.7292 11.2709C19.4375 9.97919 17.8611 9.33335 16 9.33335C14.1389 9.33335 12.5625 9.97919 11.2709 11.2709C9.97919 12.5625 9.33335 14.1389 9.33335 16C9.33335 17.8611 9.97919 19.4375 11.2709 20.7292C12.5625 22.0209 14.1389 22.6667 16 22.6667Z" fill="#94A3B8"/>
</svg>
